<svg width="950" height="475" viewBox="0 0 950 475" fill="none" xmlns="http://www.w3.org/2000/svg">
<g clip-path="url(#clip0_260_50)">
<rect width="950" height="475" fill="white"/>
<rect width="950" height="475" fill="url(#paint0_linear_260_50)"/>
</g>
<path d="M506.495 400.043C499.317 400.043 494.203 397.523 491.152 392.484C488.101 387.443 485.319 380.962 482.806 373.042L458.04 291.232C456.604 285.832 456.156 281.556 456.694 278.406C457.232 275.256 458.937 272.151 461.809 269.091L620.098 97.9073C622.074 95.5673 622.074 93.5873 620.098 91.9673C618.124 90.5272 616.151 90.6171 614.177 92.2371L444.58 251.811C441.17 254.69 437.895 256.265 434.754 256.536C431.613 256.805 427.531 256.22 422.505 254.78L338.245 229.399C330.887 227.06 324.83 224.315 320.074 221.165C315.318 218.015 312.94 212.93 312.94 205.909C312.94 200.149 315.139 195.289 319.536 191.329C323.933 187.369 329.272 184.219 335.554 181.879L602.602 79.2769C609.96 76.3968 616.152 74.9568 621.176 74.9568C626.022 74.9568 629.88 76.3968 632.751 79.2769C635.623 82.1569 637.06 86.117 637.06 91.1572C637.06 96.0172 635.713 102.137 633.021 109.517L531.263 376.014C528.571 383.394 525.161 389.244 521.033 393.562C516.906 397.883 512.06 400.043 506.495 400.043Z" fill="white"/>
<defs>
<linearGradient id="paint0_linear_260_50" x1="475" y1="475" x2="475" y2="0" gradientUnits="userSpaceOnUse">
<stop stop-color="#00B1F5"/>
<stop offset="1" stop-color="#156FEC"/>
</linearGradient>
<clipPath id="clip0_260_50">
<rect width="950" height="475" fill="white"/>
</clipPath>
</defs>
</svg>
