<svg width="950" height="475" viewBox="0 0 950 475" fill="none" xmlns="http://www.w3.org/2000/svg">
<g clip-path="url(#clip0_259_33)">
<rect width="950" height="475" fill="white"/>
<rect width="950" height="475" fill="url(#paint0_linear_259_33)"/>
<g clip-path="url(#clip1_259_33)">
<path d="M308.832 359.671C300.789 359.671 294.622 357.555 290.333 353.325C286.043 349.095 283.898 342.803 283.898 334.45V140.873C283.898 132.519 286.043 126.227 290.333 121.997C294.622 117.767 300.789 115.651 308.832 115.651H586.475C594.412 115.651 600.551 117.767 604.894 121.997C609.237 126.227 611.409 132.519 611.409 140.873V236.937C615.806 237.045 620.176 237.313 624.519 237.742C628.862 238.17 633.125 239.026 637.306 240.311V139.587C637.306 122.988 633.124 110.538 624.76 102.238C616.395 93.9376 603.741 89.7877 586.796 89.7877H308.51C291.673 89.7877 279.046 93.9376 270.627 102.238C262.209 110.538 258 122.988 258 139.587V335.735C258 352.335 262.209 364.785 270.627 373.084C279.046 381.384 291.673 385.534 308.51 385.534H516.823C514.785 381.571 513.042 377.422 511.595 373.084C510.148 368.747 509.049 364.276 508.297 359.671H308.832ZM385.562 332.361C383.31 332.361 381.487 333.057 380.092 334.45C378.698 335.841 378.001 337.662 378.001 339.911C378.001 342.16 378.698 343.955 380.092 345.294C381.487 346.632 383.31 347.301 385.562 347.301H506.69C506.474 345.801 506.421 343.445 506.528 340.232C506.636 337.02 506.743 334.396 506.849 332.361H385.562ZM610.282 422C621.328 422 631.784 419.858 641.65 415.575C651.517 411.291 660.23 405.401 667.789 397.904C675.35 390.407 681.275 381.733 685.564 371.88C689.855 362.027 692 351.531 692 340.393C692 329.148 689.882 318.599 685.645 308.747C681.41 298.893 675.538 290.218 668.032 282.721C660.525 275.224 651.838 269.361 641.971 265.131C632.106 260.901 621.543 258.786 610.282 258.786C599.13 258.786 588.62 260.901 578.755 265.131C568.888 269.361 560.201 275.251 552.694 282.802C545.188 290.352 539.29 299.027 535 308.827C530.711 318.626 528.566 329.148 528.566 340.393C528.566 351.638 530.711 362.187 535 372.04C539.29 381.893 545.188 390.568 552.694 398.065C560.201 405.562 568.888 411.425 578.755 415.655C588.62 419.885 599.13 422 610.282 422ZM583.902 372.844V307.783C583.902 304.462 585.27 302.186 588.004 300.954C590.738 299.723 593.553 299.964 596.449 301.678L649.049 332.843C652.159 334.663 653.822 337.1 654.037 340.153C654.251 343.205 652.91 345.588 650.014 347.301L596.449 378.788C593.553 380.501 590.738 380.768 588.004 379.59C585.27 378.412 583.902 376.164 583.902 372.844Z" fill="white" fill-opacity="0.85"/>
</g>
</g>
<defs>
<linearGradient id="paint0_linear_259_33" x1="950" y1="475" x2="570" y2="-285" gradientUnits="userSpaceOnUse">
<stop stop-color="#3DD9BD"/>
<stop offset="1" stop-color="#049CB7"/>
</linearGradient>
<clipPath id="clip0_259_33">
<rect width="950" height="475" fill="white"/>
</clipPath>
<clipPath id="clip1_259_33">
<rect width="434" height="369" fill="white" transform="translate(258 53)"/>
</clipPath>
</defs>
</svg>
