<svg width="1025" height="1024" viewBox="0 0 1025 1024" fill="none" xmlns="http://www.w3.org/2000/svg">
<rect x="0.5" width="1024" height="1024" rx="50" fill="black"/>
<path d="M508.58 908.288C448.505 908.288 397.305 897.365 354.98 875.52C313.337 853.675 277.497 824.32 247.46 787.456L327.332 712.704C352.591 743.424 380.239 766.635 410.276 782.336C440.996 798.037 475.812 805.888 514.724 805.888C560.463 805.888 594.937 795.648 618.148 775.168C641.359 754.688 652.964 727.04 652.964 692.224C652.964 664.235 644.772 642.048 628.388 625.664C612.004 609.28 582.991 596.992 541.348 588.8L477.86 577.536C408.228 564.565 356.004 541.696 321.188 508.928C286.372 476.16 268.964 431.104 268.964 373.76C268.964 342.357 274.767 314.027 286.372 288.768C298.66 262.827 315.385 241.323 336.548 224.256C358.393 206.507 384.676 192.853 415.396 183.296C446.116 173.739 480.591 168.96 518.82 168.96C572.751 168.96 619.513 178.517 659.108 197.632C698.703 216.064 732.495 243.029 760.484 278.528L679.588 350.208C661.156 326.315 638.628 307.2 612.004 292.864C585.38 278.528 552.271 271.36 512.676 271.36C471.716 271.36 439.972 279.552 417.444 295.936C394.916 312.32 383.652 336.213 383.652 367.616C383.652 397.653 392.868 420.181 411.3 435.2C429.732 449.536 458.404 460.459 497.316 467.968L560.804 481.28C632.484 494.933 684.708 518.144 717.476 550.912C750.927 583.68 767.652 628.736 767.652 686.08C767.652 719.531 761.849 749.909 750.244 777.216C738.639 804.523 721.572 828.075 699.044 847.872C677.199 866.987 650.233 882.005 618.148 892.928C586.063 903.168 549.54 908.288 508.58 908.288Z" fill="white"/>
</svg>
